<svg id="Layer_1" data-name="Layer 1" xmlns="http://www.w3.org/2000/svg" viewBox="0 0 15831.69 4372.5"><defs><style>.cls-1{fill:#5aa1d6;}</style></defs><path class="cls-1" d="M5997.08,2520.7c77.62-77.25,152.23-143.78,237-198,174.25-111.57,371.34-110.36,521.72,3,87.33,65.84,111.92,162.46,127,262.47,29.07,193,13.35,387.51,16.68,581.38q2.66,155.19,2.27,310.42c0,22.8,5,44.11,10.39,65.54,19.46,77.9,71.26,105.39,147.33,78.33,13.39-4.76,25.73-12.37,38.81-18.09,20.82-9.11,40.31-41.27,59-28.71,23.16,15.55,35.19,47.67,52.06,72.61,4.86,7.18,6.83,13.71-1.72,20-116.49,85.74-240.13,154-391.46,124.57-118.21-22.95-189-118.93-190.7-256-2.82-221.33,1.21-442.76-2.86-664-1.66-89.93-8-180.56-33.72-268.45-39.35-134.57-163.92-208.26-296-161.93-136.53,47.87-237.43,138.38-282.68,281.76-6.48,20.51-6.44,40.69-6.45,61.25-.11,318.55-1.46,637.1,1.33,955.62.44,50.8-15.06,61.62-61.14,58.39-55.47-3.89-111.71-4.37-167.08.17-44.9,3.68-51.41-13.75-51.26-53.6,1.44-379.06.66-758.13,1.16-1137.19.05-38.6-4.76-76.2-15.8-112.72-24.6-81.4-78-107.92-157.39-78-20.58,7.75-42,17.38-58.3,31.56-29.71,25.82-43.25,14-60.47-14.51-36.67-60.66-38.44-60.3,21.4-98.81,85.14-54.79,174.17-97.43,279.31-96.3,139.55,1.5,226.17,74,249.11,212C5987.91,2473.45,5992,2493.36,5997.08,2520.7Z" transform="translate(-276.65 -813.78)"/><path class="cls-1" d="M14262.42,2913.89c63.66-54.35,114-107.89,178.16-144.4,119.91-68.23,284.16-54.24,367.85,32.25,52.74,54.51,68.91,123.51,75.23,195.76,14.44,165.26,3.9,330.92,7,496.38.5,27,2.38,54.18,1,81.15-3.62,73.84,21.86,127.95,98.46,146.66,23.7,5.79,17.79,22.1,18.73,37,1.32,20.79-12.4,22.11-28,22.08q-184-.26-367.92-.09c-13.58,0-26.81-.89-25.16-19.48,1.27-14.22-8.06-32.32,15.75-38.73,87.29-23.48,99.61-90.71,98.92-167.53-1.29-141.74-.46-283.5-.38-425.25,0-47.89-5.35-95.28-18.11-141.27-33.67-121.24-153.29-172.58-262.5-109.08-99.77,58-167.84,135.06-160.72,264.33,7.44,135,2.29,270.68,1.43,406.06-.51,79.54,9.76,151.21,103.75,173.64,22.32,5.32,17.37,23.43,17.56,38.63.23,18.41-13.19,18.71-26.52,18.7q-186.34,0-372.7-.08c-12.43,0-28,2.08-27-17.22.73-14.1-10.17-35,13.56-39.68,100.1-19.72,107.59-98.34,108-176,1.67-353.57.94-707.16.32-1060.75-.06-30-4.52-60.23-9-90-8.71-58.51-46.71-89-102.45-96.1-25.83-3.27-30.81-14-30.65-36.78.18-24.62,15.92-21.7,31.87-24,87.14-12.49,174.87-5.35,262.21-9.4,36.83-1.71,31.31,21.73,31.31,43.65q0,291.47,0,582.94C14262.43,2872.74,14262.42,2888.33,14262.42,2913.89Z" transform="translate(-276.65 -813.78)"/><path class="cls-1" d="M9860.34,2719.2c90.35-3.73,174.81,9.43,259.19,26.23,24.44,4.87,31,14.56,30.4,37.39-1.22,49.36-1.63,98.8.12,148.13,1,28.17-7.16,38.54-37.24,39.49-44.33,1.4-72.91-5.06-95.49-53.07-54.74-116.47-219.32-154.57-328.76-83.29-76.12,49.57-87.69,156.14-24.57,224.75,40,43.44,93.07,65.8,145,89.53,72.18,33,146.37,61.77,213.21,105.5,117.51,76.89,154.94,165,129.78,305.61-18.86,105.42-104.33,184.93-225.45,211.74-162.67,36-321.73,13.29-480.36-25.77-21.71-5.34-28.16-14.26-27.77-35.2q1.56-83.59,0-167.25c-.43-22.93,8.63-29,30.83-30.56,46.84-3.33,78.08,1.44,100.78,55.73,56.77,135.75,249.24,182.12,368.38,95.9,84.61-61.22,79.64-203-9.59-268.31-57-41.72-122.65-66.56-186.63-94.54-52.46-22.94-104.34-47-152.37-78.39-90.16-58.94-136.95-140.75-124.46-249.94,11.95-104.5,72.8-173.58,167.12-214.73C9692.8,2723.1,9777.58,2713.9,9860.34,2719.2Z" transform="translate(-276.65 -813.78)"/><path class="cls-1" d="M12551.28,2939.54c0,219.59.37,439.18-.25,658.76-.17,59.92,24.59,101.13,83,117.84,25.74,7.35,36.68,20.31,31.85,47.1-5.12,28.37-27.17,16.77-41.76,16.9-116.18,1-232.37.78-348.55.25-14.12-.06-34.25,7.59-36.59-17.93-1.87-20.41.55-35.53,26.13-42.17,71.8-18.62,95.14-72.05,95.11-140.76q-.24-565.8-.34-1131.59c-.14-91.33-24.55-124.29-109.55-147.23-20.17-5.44-25.22-12.92-25.45-31.42-.25-19.55,6.07-27,26.72-29.69,90.33-11.66,181-6.4,271.53-8.4,35.11-.78,25.26,26.37,25.3,44.66q.81,331.83.35,663.68Z" transform="translate(-276.65 -813.78)"/><path class="cls-1" d="M2490.32,814.11C1260.84,792.73,261.82,1807.86,276.81,3001.89c-10,1181.37,953.34,2170.42,2145.65,2184.23,1220.68,14.14,2200.32-975.49,2204.77-2175.5C4631.79,1782,3638.36,834.07,2490.32,814.11ZM2451.5,5073.69c-1120.71,4.73-2067.11-910.8-2067-2074.8.14-1146.28,928.65-2089.55,2098.24-2073.76,1123.74,15.18,2037.42,944.47,2033.28,2085.38C4512,4139.45,3586.09,5078.1,2451.5,5073.69Z" transform="translate(-276.65 -813.78)"/><path class="cls-1" d="M12052.52,3587.24c-14.59-37.68-35.11-19.8-58-4.22-121.56,82.7-207.41,52.63-254.48-87.61-1-3-1.24-6.26-2.16-9.3-48.72-160.23-62.47-326.5-84.83-491.29-2.47-18.12,3.23-34.68,10-50.84,36-86.42,71.42-173.11,108.75-259,53.2-122.39,110.25-242.86,177.41-358.5,33.51-57.69,10.83-95.47-52.92-95.49-47.78,0-96,3.81-143.24-1.08-46.54-4.82-62.28,14-72.92,56.66-24.94,99.87-55.86,198.25-84.27,297.26-4.22,14.72-2.89,36.36-21.59,38-23,2.07-21.63-22.91-28.54-37.42-17.08-35.81-32.23-72.56-49.84-108.1-91.51-184.74-238.1-279.84-447.58-272.3-62-4.6-123.19,5.17-182,25.83-234.57,82.45-367.49,258-436.21,487.83-52.86,176.71-49.11,358.36-27,539,14.15,115.37,45.78,226.91,108.19,327.56,139.91,225.65,419,284.9,638,134.41,121.76-83.65,199.26-203.16,266.58-330.91,6.93-13.17,9.37-37.39,27.15-34.7,20.66,3.12,16.14,27.42,18.26,43.74,12.14,93.36,32.55,184.5,78.09,267.79,48.91,89.46,121.84,140.73,227.89,135.25,112.59-5.83,205.18-57.23,294.7-121.38C12120.42,3636.68,12063.52,3615.62,12052.52,3587.24ZM11230,3475.77c-77.25,113.18-208.92,157.82-321.19,124-95.19-28.64-141.83-103.38-173-189.29-45.59-125.66-52-257.28-50.89-389.48-2-174.78,15.65-345.85,99.47-503.46,43.77-82.31,102.37-150.39,195.74-177.6,130.45-38,252.41,16.61,320.67,141.51,57.17,104.63,77.63,220.42,103.2,335C11459.91,3066.74,11365.14,3277.86,11230,3475.77Z" transform="translate(-276.65 -813.78)"/><path class="cls-1" d="M13795.53,2996.75c-77.06-296.92-380.68-333.4-569-189-34,26.06-64.15,57.07-96.31,85.54-7.87,7-14.39,20.39-27.24,14.13-12.42-6.05-6.88-20.05-6.3-30.11,2.13-36.47,5.47-72.88,9.25-109.22,2.68-25.75-5.08-38.1-33.75-36.63-84.15,4.31-168.39,7.13-252.62,9.63-18.81.56-30.95,4.51-29.33,26.56,1.26,17-2.33,31.56,22.78,39.27,89.38,27.46,108.84,51.2,109.26,147.12q2.37,539.94,0,1079.89c-.25,69.76-15.95,134.83-98.87,153.13-22.91,5.06-24.5,19.87-23.58,38.67,1.23,25.28,19.67,20.54,34.7,20.63,60.52.36,121.06.15,181.58.16,57.35,0,114.73,1.28,172-.73,18.33-.65,46.49,15.42,51.77-22.36,4.66-33.37-20.22-34.44-40.24-40.3-51.08-14.94-79.59-46.59-86.8-100.83-13.51-101.65-3.6-203.53-7-305.22-.76-22.35,6.9-27.54,28.61-19.39,56.71,21.28,115.92,32.29,176.21,37.45,227.56,19.48,422.77-68.73,488.24-314C13841.82,3320.34,13837.41,3158.14,13795.53,2996.75Zm-172.94,338.1c-2.17,91.85-16.2,180.05-60.07,261.89-91.9,171.46-346.34,133.7-413.24,23.08-32.93-54.47-37.55-114.15-41.45-173.88-3.73-57.08-.81-114.59-.81-197.75,4.25-47-11.2-120.76,6.8-192.94,35.2-141.14,199.3-234.28,336.22-189.1,77.82,25.68,118,88.53,142.35,162.29C13625.36,3128.14,13625,3231.23,13622.59,3334.85Z" transform="translate(-276.65 -813.78)"/><path class="cls-1" d="M9231.35,3101.35c-25.12-157.09-93.63-288.44-251.46-349.55-120.45-46.63-245.84-48-369.33-11.37-119.08,35.31-203.91,113-256.59,225.78-43.9,94-60.75,193.08-56.27,296.16,0,20.69-.69,41.41.1,62.07,9.46,244.73,125.87,436.87,397.11,461.47,222.17,20.16,440-62.75,515.22-316.9C9245.91,3348,9251.07,3224.62,9231.35,3101.35ZM8977.43,3571.7c-42.86,80.38-107.15,129.79-200,131.87-92,2.06-160-40.88-207.38-119.68-44.6-74.23-60.89-156.68-67.82-240.35-10.13-122.22-8-244.32,34.62-362.06,47.29-130.64,134.78-190.58,264.07-175.82,107.65,12.28,158.67,89.64,194.52,180.5,34.94,88.55,40.64,181.88,40.89,275.82C9036.23,3368.93,9029.27,3474.49,8977.43,3571.7Z" transform="translate(-276.65 -813.78)"/><path class="cls-1" d="M16072.86,3715.64c-50.15-13.46-75-46.39-82.37-98.38-15.65-109.52-1.79-219.33-7.58-310.18,0-112.58,1.55-206.53-.33-300.42-3.67-182.68-101.49-275.11-282.85-279.46-161.31-3.87-305.33,48.47-444.75,121-22.32,11.61-36.75,127.44-18.56,144.44a20.33,20.33,0,0,0,12.82,4.79c38.15,0,77.31,4.59,114.11-2.68,26.76-5.28,21.15-43,36.74-62.59,4.9-6.14,8.1-13.63,12.26-20.39,54.58-88.7,140.92-97.55,230.6-84.48,79.09,11.53,122.93,65.84,141.52,142.54,15.88,65.53,17.56,131.87,17,198.67-.15,19.05-4.92,28.84-26.59,29.62-38,1.38-76.1,4.75-113.89,9.36-116.87,14.24-231.29,36.69-336.66,93.62-178.7,96.55-181.18,309.88-88,410.32,86,92.76,196.31,100,312.32,73.18,95-22,167.56-81,236.52-145.68,7.35-6.88,13.49-20.54,27-12.53,9.56,5.66,7.4,17,6.9,26.24-1.44,26.92-2.53,54-5.91,80.67-4.39,34.74,3.73,50.74,44.35,48.46,68.24-3.83,136.87-.14,205.28-1.72,15.55-.36,39.42,13.08,44.66-19.08C16112.26,3731.51,16096.67,3722,16072.86,3715.64Zm-271.45-400.43c-.94,22.23-.21,44.54-.19,66.81,0,159.9-71.92,257.84-212.43,289.25-99.05,22.15-190-16-216.94-91.13-33.62-93.61,8.68-191.61,103.9-238.09,93.58-45.68,195.34-50.55,296.61-57.92C15797.06,3282.33,15802.29,3294.17,15801.41,3315.21Z" transform="translate(-276.65 -813.78)"/><path class="cls-1" d="M7482.29,3236.17c100.34-.45,200.68-.24,301-.24s200.71-1.44,301,.79c34.17.76,45.73-10,41.66-43.08-4.46-36.23-4.75-73-10.31-109.06-14.69-95.09-38.84-187-107.26-259.86-87-92.62-198.9-111.61-318.93-106.22-156.46,7-278,75.7-357,210.67-95.9,163.88-98.33,342-62.53,521.95,29,145.78,104.34,258.78,251.65,309.87,204.85,71,421.41,10,566.37-156,31.32-35.87-10.39-41.17-21.08-58.21-10.29-16.42-23.76-35.83-47.74-9.92-31.45,34-69.17,60.77-110.31,82.45-129.3,68.12-295.82,49.26-378.08-48.47-76.32-90.68-84.26-202.51-83.35-315.16C7447.59,3229.82,7467.9,3236.23,7482.29,3236.17ZM7455.43,3121c7.35-92,28-179.47,92.3-249.44,110-119.63,282.9-85.26,341.09,65.95,22,57.08,25.08,117.46,35.09,176.69,4.92,29.16-9.09,35.23-34.81,34.8-66.85-1.14-133.73-.38-200.6-.4s-133.73-.17-200.6.1C7468.65,3148.75,7453.31,3147.57,7455.43,3121Z" transform="translate(-276.65 -813.78)"/><path class="cls-1" d="M1515.86,2620.27c60.94-59.78,115.48-113,180.33-154,90.88-57.45,187.69-84.09,294.79-59.29,139.59,32.32,215,137.62,228.53,301.76,14,170.26,5,340.44,8.32,510.62,1,52.53-1.33,105.16.59,157.65,4.1,111.91,72.51,149.25,164.93,87.44,31.45-21,43.92-16,61.37,13.48,15.2,25.72,26.77,42-8.74,63-55,32.49-108.91,64.95-172.53,77.63-159.33,31.75-264.25-53.34-265.12-217-.89-168.81.55-337.63-.64-506.44-.5-69.84-6.81-139.49-26.5-207.08-33.75-115.88-137.93-167.77-249.84-124.77C1596.61,2615,1518.17,2728,1518.13,2870.79c-.07,235.71-1.22,471.42,1.07,707.11.42,43.6-13,55.64-54,51.85a598.84,598.84,0,0,0-109.76,0c-42.49,3.92-56.23-8.68-55.89-54,2.23-293,1.22-586.07,1-879.1,0-20.6.1-41.71-4-61.72-22.59-109.53-79.37-134.44-173.45-73.59-26.67,17.24-37,15.37-55.32-10.54-23.19-32.86-23-50.45,13.64-72.81,80-48.86,161.17-90.86,258.57-77.12,90.36,12.75,141.75,62.38,161.31,150.64C1505.67,2571.37,1509.72,2591.28,1515.86,2620.27Z" transform="translate(-276.65 -813.78)"/><path class="cls-1" d="M3883.36,3470.35c-24.35-40.95-41.62-19.43-65.35-4.42-85.06,53.79-146.53,33.34-183.9-60.32-4.69-11.75-8.13-24-11.6-36.23-30-105.53-44.34-213.91-55.45-322.6-2.95-28.93-14.49-57.08-1.34-88.69,67-161.16,131.75-323.27,219.13-475,9.56-16.59,17.21-33.28,18.19-53.4,1.27-25.86-6.07-37.91-34.48-36.71-44.49,1.89-89.18,1.82-133.68,0-29.68-1.2-44.52,6.3-52.61,38.85-20.59,82.83-46.89,164.26-71.12,246.18-2.51,8.49-1.71,20.35-14.78,21.22-12.59.85-14.14-9.57-17.91-18.37-12.49-29.18-25.13-58.33-38.72-87-96.21-203-266.16-255.86-467.72-210.77-185.33,41.46-294.72,172-361.33,342-52.19,133.21-55.88,273.26-45.16,413.37,7.89,103,28.68,204,78,296.9,106.32,200.31,337.68,256.63,523.84,127,88.74-61.77,145.38-149.85,197.16-241.83,8.81-15.64,17.58-31.31,25.61-45.62,14.36,5.1,12.49,12.31,13.51,18.07,14.42,81.15,26.57,163.16,69.14,235.83,39,66.56,94.05,104.58,175.43,100.6,82.82-4.05,152.18-37.65,219-83.4C3900.63,3523.17,3904.72,3506.25,3883.36,3470.35Zm-506.68-482.1c-10.73,158.74-67.14,316.12-191.87,429-132,119.48-289.65,73.39-349.74-95.09-35.67-100-39.14-204.85-44.28-307.63,7.19-154.72,17.9-306.51,109-438.29,107.29-155.19,304.17-142.12,388.48,26.75C3348.74,2724.1,3385.43,2858.88,3376.68,2988.25Z" transform="translate(-276.65 -813.78)"/></svg>